<?xml version="1.0" encoding="UTF-8" standalone="no"?><!DOCTYPE svg PUBLIC "-//W3C//DTD SVG 1.1//EN" "http://www.w3.org/Graphics/SVG/1.1/DTD/svg11.dtd"><svg width="100%" height="100%" viewBox="0 0 929 1127" version="1.1" xmlns="http://www.w3.org/2000/svg" xmlns:xlink="http://www.w3.org/1999/xlink" xml:space="preserve" xmlns:serif="http://www.serif.com/" style="fill-rule:evenodd;clip-rule:evenodd;stroke-linejoin:round;stroke-miterlimit:2;"><rect id="rebel-ape-icon-green" x="0" y="0" width="928.959" height="1126.346" style="fill:none;"/><g id="Layer-1" serif:id="Layer 1"></g><path d="M550.228,980.124c-0.151,-4.309 -2.748,-65.474 -30.89,-138.037c79.65,-19.378 101.177,-91.182 101.969,-93.533c29.735,37.224 27.403,79.457 60.07,110.651c-1.138,29.804 -3.144,61.43 -5.696,95.184c-0.424,5.606 -1.236,12.932 -2.109,17.726c6.032,-1.969 7.88,-4.663 7.88,-4.663c0,0 5.034,7.158 -2.066,11.588c-1.516,0.949 -9.28,5.862 -9.595,7.162c-0.031,0.131 -0.053,0.237 -0.08,0.356c4.256,1.087 10.459,-3.113 10.459,-3.113c0,0 -0.866,8.724 -5.949,13.458c-5.097,4.747 -7.26,15.001 -14.364,15.208c-6.952,0.203 -18.564,0.055 -35.89,0c-16.101,-0.051 -62.98,-0.053 -73.67,0c-9.104,0.045 -12.88,-10.993 -17.587,-16.519c-4.702,-5.514 -6.109,-14.939 -6.109,-14.939c0,0 4.497,5.328 7.537,5.946c3.045,0.623 6.408,-0.618 6.408,-0.618c-1.077,-2.185 -5.779,-11.132 -5.779,-11.132c0,0 4.634,2.791 10.183,2.58c4.593,-0.165 5.203,1.962 5.277,2.694l0.008,0.242c0,0 0.007,-0.092 -0.008,-0.242Zm301.957,-279.48c20.552,75.606 21.526,160.162 12.49,279.691c-0.424,5.606 -1.68,10.731 -2.553,15.525c6.032,-1.969 16.42,-0.826 16.42,-0.826c0,0 -7.29,5.535 -14.39,9.965c-1.516,0.949 -2.996,1.868 -4.37,2.748c-0.35,1.618 -0.683,3.1 -0.997,4.4c-0.031,0.131 -0.053,0.237 -0.08,0.356c6.643,-3.396 15.565,-0.191 15.565,-0.191c0,0 -7.397,2.604 -12.48,7.339c-5.097,4.747 -5.834,18.198 -12.938,18.406c-6.952,0.203 -18.564,0.055 -35.89,0c-16.101,-0.051 -62.98,-0.053 -73.67,0c-9.104,0.045 -12.892,-13.624 -17.599,-19.151c-4.702,-5.514 -9.644,-8.025 -9.644,-8.025c0,0 8.044,1.046 11.084,1.664c3.045,0.623 6.408,-0.618 6.408,-0.618c-1.077,-2.185 -8.576,-4.26 -8.576,-4.26c0,0 5.212,-1.453 10.761,-1.664c5.54,-0.199 7.503,0.309 7.503,0.309c0,0 -1.742,-2.592 -3.59,-5.501c-1.844,-2.909 -4.015,-8.995 -4.015,-8.995l8.766,8.385c-0.146,-1.546 -0.31,-3.091 -0.479,-4.641c-1.276,-2.795 -2.814,-5.899 -4.326,-8.3c-3.572,-5.692 -10.122,-13.471 -10.122,-13.471c0,0 6.745,4.366 12.307,7.403c0.106,0.055 0.208,0.119 0.31,0.178c-5.004,-33.714 -14.971,-79.172 -30.31,-114.639c-0.297,4.883 -0.261,9.778 0.129,14.657c-6.674,-12.391 -10.632,-25.723 -11.926,-39.241c-0.736,6.103 -0.957,12.256 -0.603,18.392c-4.84,-9.482 -8.101,-19.472 -9.834,-29.64c-0.151,5.632 0.129,11.273 0.886,16.868c-6.041,-9.893 -12.676,-18.275 -16.204,-28.93c-8.475,-25.595 -31.646,-77.917 -50.787,-94.671c-12.582,32.96 -39.253,71.109 -60.238,85.368c2.349,-3.629 4.432,-7.407 6.28,-11.286c-8.664,10.443 -19.527,19.277 -32.135,25.774c4.215,-5.006 7.915,-10.388 11.066,-16.067c-0.23,0.14 -0.461,0.275 -0.691,0.411c-9.449,10.299 -21.113,18.786 -34.462,24.702c3.736,-3.93 7.122,-8.148 10.171,-12.586c-9.985,4.121 -20.413,7.445 -31.209,9.867c0.612,7.233 0.545,14.572 -0.545,21.899c-1.055,-3.837 -2.429,-7.589 -3.953,-11.278c-0.062,0.186 -0.129,0.385 -0.182,0.572c0.953,8.19 0.873,16.546 -0.363,24.88c-1.002,-3.604 -2.274,-7.102 -3.678,-10.575c-1.037,3.778 -2.234,7.407 -3.173,11.278l-169.55,0c-0.257,-3.955 -0.434,-7.962 -0.643,-11.938c-2.243,3.977 -4.303,8.063 -5.974,12.29c-0.479,-11.904 1.418,-23.589 5.194,-34.625c-0.004,-0.148 0,-0.292 0,-0.44c-2.765,4.73 -5.305,9.588 -7.304,14.657c-0.594,-14.666 2.141,-28.997 7.485,-42.349c0.151,-6.594 0.226,-13.23 0.55,-19.743c-6.453,9.516 -15.379,25.863 -22.775,53.097c2.548,11.328 3.178,23.076 1.423,34.845c-1.48,-5.378 -3.497,-10.592 -5.877,-15.669c-0.013,0.064 -0.035,0.114 -0.044,0.178c2.464,11.197 3.111,22.788 1.374,34.404c-1.25,-4.553 -2.965,-8.957 -4.866,-13.298c-0.257,1.906 -0.589,3.566 -0.829,5.531c-4.033,33.591 -4.614,69.114 -4.321,94.278c0.501,-0.339 0.993,-0.665 1.48,-0.97c6.098,-3.82 10.3,-2.812 10.3,-2.812c0,0 -3.993,4.62 -7.773,10.041c-2.867,4.108 -3.563,6.945 -3.732,8.084l0.013,0.457c0.43,-0.61 3.182,-4.307 8.354,-6.547c6.041,-2.613 14.7,-1.995 14.7,-1.995c0,0 -10.3,6.225 -19.336,20.484c0,0 3.78,-3.811 13.659,-5.018c0,0 -3.364,3.413 -7.144,8.038c-3.785,4.62 -4.622,8.83 -5.886,17.876c-1.263,9.029 -10.92,12.068 -20.808,12.048c-11.158,-0.022 -74.883,-0.017 -83.918,0.03c-6.734,0.036 -6.67,-6.467 -16.34,-12.688c-9.666,-6.225 -16.181,-10.647 -16.181,-10.647l12.4,0.809c0,0 -5.256,-3.811 -11.35,-8.847c-6.094,-5.018 -11.979,-7.017 -11.979,-7.017c0,0 4.835,-0.61 19.336,2.41c0,0 -9.458,-6.234 -12.821,-11.049c-3.364,-4.819 -5.673,-11.849 -5.673,-11.849c0,0 4.41,4.616 8.824,7.428c2.801,1.783 7.539,4.049 10.636,5.467c-0.226,-0.462 -0.448,-0.927 -0.678,-1.402c-3.124,-2.41 -7.357,-5.882 -9.116,-8.284c-2.943,-4.015 -6.515,-12.048 -6.515,-12.048c0,0 5.039,4.015 9.661,7.225c-12.241,-28.175 -28.732,-74.289 -40.902,-139.054c-1.684,6.208 -2.739,12.561 -3.169,18.96c-6.595,-18.113 -7.259,-37.373 -2.801,-55.558c-0.066,-0.432 -0.124,-0.889 -0.186,-1.321c-3.439,8.948 -5.544,18.341 -6.244,27.823c-7.72,-21.632 -7.073,-44.835 0.78,-65.87c-4.184,9.156 -6.958,18.816 -8.177,28.7c-18.332,-94.319 2.675,-266.097 25.674,-338.565c-2.996,4.159 -5.77,8.444 -8.084,12.989c0.948,-16.791 6.497,-32.719 15.476,-46.652c-4.463,5.09 -8.549,10.477 -11.846,16.326c3.39,-33.939 20.979,-62.831 52.769,-78.487c0,0 -0.168,0.5 -0.182,0.529c0.106,-0.072 0.736,-0.614 0.736,-0.614c0,0 -6.151,25.57 -4.042,37.653c2.105,12.082 10.091,16.101 13.043,25.363c2.947,9.262 2.978,19.743 3.395,31.423c0.425,11.676 4.339,17.101 16.491,24.838c8.904,5.675 27.74,44.032 33.568,60.273c-1.946,-7.208 -7.45,-27.311 -12.4,-41.163c-5.899,-16.512 -4.653,-22.183 -10.978,-27.819c-6.32,-5.641 -10.933,-10.054 -13.043,-16.897c-2.105,-6.844 0,-24.952 -4.636,-35.019c-4.636,-10.071 -12.631,-19.358 -12.631,-30.237c0,-14.094 4.618,-25.359 3.35,-37.039c-1.263,-11.676 -5.043,-26.989 -5.464,-54.372c-0.346,-22.627 1.157,-38.699 4.503,-51.166c-7.521,-10.274 -21.565,-27.862 -44.456,-48.935c-35.065,-32.274 -65.304,-43.662 -65.304,-43.662c0,0 13.801,2.685 30.996,8.029c-3.643,-3.303 -8.35,-7.263 -13.087,-10.443c-9.87,-6.628 -23.467,-20.141 -23.467,-20.141c0,0 6.129,4.591 22.137,9.435c16.003,4.841 25.12,10.134 25.12,10.134c0,0 0.239,-1.22 -6.431,-10.401c-6.666,-9.177 -14.142,-16.059 -14.142,-16.059c0,0 8.527,4.612 16.531,7.415c8.004,2.804 17.315,10.049 17.315,10.049c0,0 -3.16,-4.447 -8.496,-11.587c-5.336,-7.136 -9.874,-14.788 -9.874,-14.788c0,0 5.088,2.541 11.753,6.365c6.67,3.824 13.597,8.161 13.597,8.161l-15.476,-16.808l-9.325,-10.752l18.277,5.751l18.007,11.057l-9.599,-14.217l-4.317,-11.981l12.813,7.898l18.414,13.607c0,0 1.352,-1.372 -6.382,-11.062c-7.738,-9.685 -14.147,-15.796 -14.147,-15.796c0,0 5.85,-0.525 17.59,8.91c11.736,9.431 14.191,10.177 14.191,10.177c0,0 -1.086,-4.294 -6.151,-12.197c-5.07,-7.907 -10.198,-21.81 -10.198,-21.81c0,0 0.567,-0.373 8.035,7.017c7.472,7.394 15.201,13.78 15.201,13.78l-6.661,-17.334c0,0 5.89,5.582 11.762,12.463c5.868,6.882 11.434,14.043 11.434,14.043c0,0 0.027,-7.424 -4.778,-14.306c-4.8,-6.882 -10.699,-16.283 -10.699,-16.283c0,0 10.699,5.577 18.968,15.009c8.27,9.435 9.732,8.868 9.732,8.868c0,0 0.111,-7.339 -0.687,-12.946c-0.802,-5.61 -5.6,-19.873 -5.606,-19.879c0.004,0.002 4.311,2.313 10.978,11.231c6.67,8.923 11.434,16.063 11.434,16.063c-3.466,-16.059 -7.437,-25.761 -7.437,-25.761c0,0 2.118,1.779 9.32,10.448c7.202,8.665 11.483,15.267 11.483,15.267c0,0 0.979,-6.95 2.065,-13.425c1.086,-6.475 0.505,-15.271 0.505,-15.271c0,0 4.113,5.442 8.177,13.471c4.064,8.025 6.2,13.429 6.2,13.429c0,0 -0.815,-12.391 0,-16.016c0.815,-3.629 -2.712,-16.592 -2.712,-16.592c0,0 4.636,2.05 9.781,11.633c5.15,9.579 8.132,15.313 8.132,15.313c0,0 -2.996,-10.625 -3.537,-16.326c-0.545,-5.696 0.55,-15.009 0.55,-15.009c0,0 2.987,13.696 8.39,19.125c5.425,5.438 11.39,18.913 11.39,18.913c0,0 -1.915,-8.029 -1.099,-13.209c0.811,-5.179 4.866,-12.684 4.866,-12.684c0,0 -1.241,7.741 1.241,11.76c2.477,4.019 6.151,20.01 6.151,20.01c0,0 2.26,-8.055 5.606,-12.9c3.342,-4.845 6.338,-15.14 6.338,-15.14c0,0 3.231,8.754 3.12,16.897c-0.106,8.14 0.461,17.507 0.461,17.507c0,0 1.6,-13.099 5.052,-18.562c3.452,-5.459 6.705,-15.623 6.705,-15.623c0,0 2.229,7.208 2.983,14.831c0.758,7.627 0.461,17.6 0.461,17.6c0,0 2.921,-4.43 7.991,-7.11c5.07,-2.676 9.599,-11.1 9.599,-11.1c0,0 1.715,5.535 -0.554,11.405c-2.265,5.878 -6.244,20.277 -6.244,20.277c0,0 5.806,-8.411 7.534,-10.27c1.724,-1.855 4.636,-9.169 4.636,-9.169c0,0 2.065,7.974 2.065,12.637c0,4.663 -0.089,11.409 -0.089,11.409c0,0 3.913,-1.575 5.646,-5.616c1.737,-4.04 3.031,-8.296 3.031,-8.296c0,0 2.482,5.006 1.609,9.876c-0.869,4.87 -2.57,11.278 -2.57,11.278c0,0 3.457,-5.467 7.902,-9.304c4.445,-3.833 8.904,-7.767 8.904,-7.767c0,0 -3.35,5.391 -2.703,10.884c0.651,5.493 -0.013,8.999 -0.869,11.278c-0.873,2.283 -2.393,7.068 -2.393,7.068c0,0 4.95,-3.24 6.798,-6.454c1.83,-3.214 3.16,-9.126 3.16,-9.126c0,0 2.925,6.022 1.844,12.548c-1.09,6.53 -2.065,9.435 -2.065,9.435c0,0 7.627,-1.525 10.787,-4.65c3.16,-3.125 6.058,-8.25 6.058,-8.25c0,0 -1.985,13.387 -3.847,17.071c-1.875,3.684 -3.732,9.829 -3.732,9.829c0,0 7.437,-3.684 10.242,-7.593c2.81,-3.909 5.15,-8.817 5.15,-8.817c0,0 0.935,7.373 -0.235,12.286c-1.17,4.913 -2.429,12.637 -2.429,12.637c0,0 2.898,-1.148 6.524,-4.387c3.616,-3.24 5.877,-7.593 5.877,-7.593c0,0 0.807,6.145 -0.833,11.062c-1.635,4.913 -4.317,12.197 -4.317,12.197c0,0 2.433,0.08 7.813,-0.483c5.385,-0.555 13.455,-1.448 13.455,-1.448c0,0 -2.783,3.134 -4.769,5.709c-1.99,2.571 -3.315,6.009 -3.315,6.009c0,0 4.702,-4.798 7.627,-6.361c2.925,-1.567 6.333,-1.8 6.333,-1.8c0,0 -3.745,4.138 -4.68,9.173c-0.935,5.031 -2.251,11.629 -2.251,11.629c0,0 3.302,-2.219 8.217,-3.337c4.915,-1.118 9.608,-0.22 9.608,-0.22c0,0 -4.175,2.507 -7.632,6.759c-3.457,4.252 -3.625,8.381 -3.625,8.381l6.435,-3.07c-4.215,7.322 -3.683,9.787 -3.683,9.787c0,0 5.438,-3.176 7.53,-6.365c2.105,-3.189 3.08,-6.492 3.08,-6.492c0,0 1.6,9.457 -0.505,13.471c-2.096,4.015 -4.463,8.47 -4.463,8.47c0,0 3.12,1.317 5.837,-2.109c2.717,-3.422 3.718,-6.141 3.718,-6.141c0,0 0.846,5.315 -0.638,9.567c-1.48,4.252 -3.585,8.953 -3.585,8.953c5.691,-2.719 7.304,-5.751 7.304,-5.751c0,0 -0.129,4.472 -1.613,8.953c-1.272,3.9 -2.544,9.609 -2.934,11.367c3.47,5.061 6.484,9.643 8.912,13.471c-18.547,-18.71 -35.083,-34.718 -44.093,-44.979c-39.869,-45.394 -108.324,-81.179 -150.954,-46.999c-14.133,11.333 -20.688,26.638 -21.814,43.666c-0.191,2.799 -0.142,5.666 -0.044,8.555c0.035,1.054 0.013,2.096 0.089,3.159c0.23,3.324 0.669,6.7 1.241,10.096c0.093,0.529 0.133,1.042 0.23,1.58c0.301,1.63 0.771,3.274 1.148,4.913c0.492,2.16 0.9,4.324 1.516,6.496c1.259,4.442 2.721,8.889 4.454,13.34c-7.534,-6.306 -15.525,-9.114 -22.27,-6.712c-13.761,4.891 -17.067,28.992 -7.397,53.847c1.542,3.955 9.258,19.667 16.535,27.646c6.958,7.636 10.424,12.112 10.424,12.112l-20.254,-12.158c0,0 -14.328,4.197 -14.328,18.435c0,14.238 5.744,19.133 5.744,19.133c0,0 7.618,-0.881 16.212,1.491c8.593,2.372 5.332,2.892 16.026,4.167c2.305,0.275 4.122,0.737 5.744,1.228c-0.27,-1.342 -0.572,-2.723 -0.598,-3.858c-0.137,-6.043 3.169,-12.07 3.169,-12.07c0,0 0.328,5.188 3.444,11.146c2.885,5.518 5.877,7.11 5.877,7.11c0,0 -1.467,-3.049 -1.467,-11.981c0,-8.936 3.674,-12.726 3.674,-12.726c0,0 0.009,11.549 5.784,15.754c2.819,2.054 7.565,2.405 9.874,2.503c6.4,-6.335 15.933,-22.945 18.831,-26.638c3.133,-3.994 8.257,-0.866 8.257,-0.866c0,0 -13.991,-29.373 -16.04,-49.552c-2.115,-20.835 5.027,-40.421 5.027,-40.421c0,0 3.093,41.1 20.941,72.104c10.322,17.922 25.94,35.785 29.113,42.256c3.178,6.471 -3.855,12.308 -6.182,17.165c-2.327,4.853 0.447,5.911 -1.667,11.975c-2.118,6.064 -17.958,20.624 -17.958,20.624l-11.825,11.559l4.845,-11.559c0,0 3.634,-7.809 3.169,-12.548c-0.341,-3.481 -2.916,-10.863 -16.673,-9.042c-13.752,1.821 -20.152,11.646 -23.325,15.491c-3.178,3.841 -11.425,2.66 -17.772,2.46c-0.975,-0.034 -1.733,0.233 -2.393,0.614c2.203,-0.059 5.088,0.301 8.132,2.325c5.717,3.794 8.084,11.981 8.084,11.981c0,0 -6.125,-3.337 -12.817,-2.503c-4.374,0.546 -5.846,2.469 -6.887,3.684c-0.013,0.165 -0.031,0.33 -0.044,0.487c-0.638,7.28 1.901,6.035 5.925,13.514c4.02,7.483 5.261,13.963 6.107,17.6c0.749,3.235 6.643,6.683 11.527,7.724c-0.151,-8.889 1.928,-21.196 1.928,-21.196c0,0 2.912,10.329 6.338,16.368c1.073,1.893 2.5,3.634 3.856,5.442c9.706,0.157 22.049,0.14 24.619,-0.44c3.599,-0.805 8.686,-5.056 9.32,-11.934c0.638,-6.878 1.702,-13.56 1.702,-13.56l-13.136,12.773c0,0 8.035,-20.438 19.886,-33.176c11.634,-12.51 46.746,-43.219 48.227,-44.397l0.784,-0.703l-0.093,0.131l0.133,-0.089l-0.824,0.661c-0.532,0.911 -23.612,48.297 -35.871,87.838c-3.461,11.176 -3.904,13.327 -5.464,18.828c-4.064,-0.877 -9.666,-1.813 -16.947,-2.325c-15.547,-1.097 -33.687,2.338 -41.792,4.608c-8.101,2.266 -4.671,8.101 3.678,8.339c8.345,0.237 10.863,-6.793 28.377,-6.717c10.796,0.051 18.729,3.811 23.56,6.759c-1.613,6.335 -1.697,7.813 -1.697,7.813c0,0 -15.454,17.317 -20.941,42.654c-2.424,11.201 -3.647,20.124 -4.272,27.561c2.327,-1.584 4.596,-3.189 7.122,-4.65c-5.07,18.939 -1.33,25.02 -3.311,35.544c-0.009,0.017 -0.035,0.025 -0.044,0.042c0.004,0.004 0.093,0.131 0.093,0.131c-2.894,29.306 -1.041,54.245 2.938,71.926c-1.919,-24.122 5.619,-58.207 15.67,-103.076c-3.005,4.29 -5.828,8.69 -8.172,13.34c0.789,-15.127 5.092,-29.615 12.028,-42.785c-3.971,4.29 -7.658,8.813 -10.88,13.649c3.328,-18.727 11.869,-35.882 24.154,-50.163c28.142,-95.481 56.099,-156.808 90.832,-186.605c-5.832,0.381 -11.647,1.084 -17.364,2.283c9.05,-6.107 18.849,-10.723 29.082,-14.085c-4.853,-1.173 -9.741,-2.143 -14.705,-2.723c11.62,-3.163 23.529,-4.307 35.318,-3.947c-5.85,-2.702 -11.904,-5.056 -18.144,-6.801c13.349,-1.465 26.644,-0.483 39.408,2.367c-4.871,-3.058 -9.914,-5.865 -15.206,-8.203c37.396,1.228 71.65,19.993 92.502,49.498c23.165,29.251 39.218,76.677 40.414,149.035c0.541,32.999 -18.96,117.083 -55.159,179.883c14.625,-23.072 57.85,-85.566 68.035,-145.79c8.669,-51.302 0.222,-97.607 -1.196,-103.815c-0.687,-2.321 -1.073,-4.032 -1.077,-4.036c8.07,-2.257 9.628,-2.215 17.637,-2.207c13.349,0.017 26.321,3.295 37.799,10.185c-5.057,-0.788 -10.22,-0.813 -15.339,-0.44c9.75,0.69 19.354,3.396 27.961,8.343c-5.575,-0.762 -11.23,-0.606 -16.846,0.042c9.28,1.139 18.339,4.121 26.401,9.126c-4.298,-0.735 -8.657,-0.886 -13.015,-0.763c2.077,1.042 4.141,2.119 6.191,3.23c0.639,0.34 1.278,0.69 1.917,1.051c93.584,51.875 158.501,173.439 165.298,206.566c-6.738,-9.007 -16.021,-17.096 -27.33,-23.215c0.217,0.474 0.434,0.948 0.649,1.421c19.457,17.338 32.773,40.211 36.95,65.827c-5.606,-8.325 -12.349,-15.98 -20.036,-22.743c0.125,0.378 0.25,0.756 0.375,1.135c6.481,9.042 11.597,19.055 15.069,29.844c-2.73,-2.976 -5.625,-5.817 -8.672,-8.511Zm-170.62,-254.598c-0.12,0.004 -0.241,0.007 -0.361,0.011c0.089,0.037 0.179,0.075 0.268,0.113c0.031,-0.042 0.062,-0.083 0.093,-0.124Zm-208.539,436.522c-1.378,6.933 -0.502,6.259 -1.557,13.412l25.573,17.803l-30.49,17.471c-0.47,5.289 -0.746,5.818 -1.016,11.217l-150.085,0c-1.174,-6.865 -1.514,-6.378 -2.507,-13.366l-29.039,-14.149l24.978,-19.346c-0.696,-6.153 -0.607,-6.801 -1.144,-13.043l165.286,0Zm-48.534,15.123c-8.523,0 -15.443,6.612 -15.443,14.757c0,8.145 6.92,14.757 15.443,14.757c8.523,0 15.443,-6.612 15.443,-14.757c0,-8.145 -6.92,-14.757 -15.443,-14.757Zm-72.628,29.728c4.088,0 7.816,-1.52 10.596,-3.997c3.045,-2.714 4.953,-6.578 4.953,-10.855c0,-8.175 -6.982,-14.792 -15.548,-14.792c-8.55,0 -15.475,6.617 -15.475,14.792c0,8.181 6.925,14.852 15.475,14.852Zm-48.486,-514.146c5.456,9.575 -9.919,17.554 -9.923,17.554c0,0 3.386,-5.222 1.241,-6.801c-2.446,-1.808 -6.475,-0.936 -10.149,2.147c-5.154,4.328 -8.035,8.076 -8.035,8.076c0,0 0.926,-11.273 5.784,-16.719c3.621,-4.057 9.489,-7.229 14.284,-7.462c2.876,-0.14 5.402,0.762 6.798,3.206Zm164.234,596.671c1.44,-1.033 3.124,-2.088 4.826,-2.825c4.552,-1.978 13.132,-4.747 13.132,-4.747c0,0 -6.408,5.73 -9.919,10.371c-3.523,4.646 -4.76,7.106 -4.76,7.106c0,0 1.755,-1.774 7.955,-2.359c0,0 -4.587,3.875 -6.342,5.937c-1.755,2.075 -3.328,5.7 -3.328,5.7c0,0 1.547,-1.774 5.575,-3.252c4.029,-1.478 7.087,-0.686 7.087,-0.686c0,0 -5.216,4.087 -8.478,6.971c-3.873,3.401 -2.562,4.807 -2.562,4.807c0,0 4.188,-3.18 9.91,-2.511c0,0 -4.875,3.989 -9.44,9.465c-4.8,5.751 -3.718,10.93 -14.82,12.112c-11.084,1.182 -90.419,-0.186 -98.024,-0.186c-7.605,0 -15.436,-2.571 -18.605,-4.993c-4.334,-3.316 -9.511,-8.809 -13.624,-12.633c-4.423,-4.112 -8.651,-13.018 -8.651,-13.018l11.629,6.484c0,0 -4.073,-4.049 -11.284,-11.324c-7.215,-7.28 -7.964,-15.665 -7.964,-15.665c0,0 0.807,1.33 6.346,5.963c5.54,4.633 10.269,3.85 10.269,3.85c0,0 -1.378,-0.631 -4.179,-4.273c-2.805,-3.638 -5.611,-8.804 -5.611,-8.804l10.419,6.323c0,0 -5.815,-7.28 -9.019,-12.832c-3.204,-5.552 -6.612,-15.508 -6.612,-15.508c0,0 5.81,5.933 12.826,11.104c0.408,0.301 0.82,0.597 1.232,0.885c-2.726,-10.964 -5.216,-22.123 -7.432,-33.486l146.863,0c-0.022,2.033 -0.177,4.015 -0.177,6.056c0,15.75 1.028,31.059 2.761,45.97Z" style="fill:#049c4b;"/></svg>