<?xml version="1.0" encoding="UTF-8" standalone="no"?>
<!DOCTYPE svg PUBLIC "-//W3C//DTD SVG 1.1//EN" "http://www.w3.org/Graphics/SVG/1.1/DTD/svg11.dtd">
<svg width="100%" height="100%" viewBox="0 0 512 512" version="1.1" xmlns="http://www.w3.org/2000/svg" xmlns:xlink="http://www.w3.org/1999/xlink" xml:space="preserve" xmlns:serif="http://www.serif.com/" style="fill-rule:evenodd;clip-rule:evenodd;stroke-linejoin:round;stroke-miterlimit:2;">
    <g transform="matrix(1.021402,0,0,1.021402,-10.957766,0)">
        <path d="M10.728,58.158L10.728,35.667C10.728,15.982 26.71,0 46.395,0L130.725,0C129.447,2.287 129.255,4.965 130.076,7.345L130.171,7.626L130.25,7.683L130.253,7.687L130.172,7.629C130.338,8.127 130.673,9.13 131.092,10.422C126.089,6.713 122.163,4.667 122.12,4.644C118.507,2.761 114.08,3.532 111.316,6.525C111.061,6.801 110.826,7.09 110.611,7.389C108.944,7.428 107.276,7.93 105.811,8.91C105.559,9.078 105.318,9.258 105.089,9.447C103.646,8.606 101.771,8.266 99.871,8.275C96.457,8.292 93.031,9.413 92.319,9.945L92.25,10.019C91.725,10.163 91.331,10.615 91.271,11.168C91.171,12.08 91.35,13.31 91.703,14.618C91.985,15.662 92.373,16.765 92.764,17.772C92.325,17.452 91.67,16.996 91.045,16.649C90.442,16.314 89.847,16.089 89.414,16.037L88.685,16.077L88.09,16.356L87.677,16.8L87.461,17.308L87.406,17.891C87.414,18.095 87.452,18.343 87.537,18.638C87.572,18.759 87.617,18.894 87.674,19.042C83.342,17.597 80.888,17.914 80.437,17.992C77.324,18.294 74.612,20.189 73.238,22.951C69.029,22.244 66.974,23.891 66.459,24.392C65.455,25.058 64.592,25.922 63.925,26.931C63.415,27.432 61.976,29.25 62.378,33.452C53.696,30.354 49.205,31.626 48.639,31.812C46.141,32.432 44.018,34.104 42.823,36.4C41.623,38.705 41.475,41.415 42.416,43.836C42.473,44.015 42.783,44.876 43.754,46.396L43.714,46.438C41.931,48.355 41.112,50.891 41.331,53.38C40.704,53.055 40.348,52.862 40.348,52.862C36.343,50.696 31.352,51.852 28.707,55.558C26.653,58.435 26.513,62.149 28.12,65.109C20.47,62.33 17.15,60.126 16.853,59.924C15.026,58.562 12.845,57.989 10.728,58.158ZM254.926,-0L476.333,0C496.018,0 512,15.982 512,35.667L512,292.966C507.223,282.73 501.42,272.297 494.622,263.679C473.794,234.341 439.668,215.664 402.408,214.44C398.99,214.328 395.89,216.145 394.267,218.995C394.108,218.901 393.947,218.786 393.78,218.657C393.155,218.175 392.519,217.485 391.882,216.657C389.806,213.961 387.785,209.863 386.464,206.109C385.606,203.669 385.037,201.381 384.983,199.738C384.971,199.378 384.984,199.056 385.033,198.78C385.057,198.64 385.136,198.438 385.151,198.402C388.733,195.525 389.583,190.413 387.12,186.529C385.371,183.772 383.3,180.6 380.961,177.128C381.419,175.234 381.991,173.03 382.567,171.264C384.189,166.35 384.456,161.448 384.491,160.607L384.491,160.603C384.521,159.863 383.946,159.238 383.206,159.207C382.466,159.175 381.84,159.749 381.808,160.489L381.807,160.493C381.781,161.096 381.67,161.678 381.487,162.225L379.991,161.829C380.189,161.296 380.383,160.76 380.567,160.231C382.616,154.361 381.549,147.032 381.549,147.032L381.547,147.016C381.161,144.593 379.827,142.508 377.943,141.137C377.835,137.487 377.304,134.309 377.304,134.309L377.304,134.306C377.016,132.605 376.261,131.077 375.181,129.85C375.517,128.599 375.586,127.266 375.35,125.935C374.695,122.251 371.835,119.353 368.16,118.649C368.076,118.633 365.838,118.206 362.683,118.188C362.927,117.87 363.095,117.688 363.095,117.688L363.111,117.672C365.581,114.942 366.146,110.986 364.54,107.674C363.272,105.062 360.853,103.263 358.085,102.743C356.183,100.329 353.141,99.016 350.006,99.363C350.006,99.363 347.502,99.64 344.434,99.972C345.876,94.035 345.089,87.507 345.089,87.507L345.088,87.495C344.575,83.587 341.584,80.463 337.702,79.78C337.27,79.704 336.839,79.66 336.41,79.647C336.31,77.286 336.117,75.616 336.117,75.616L336.115,75.601C335.626,71.746 332.729,68.651 328.945,67.889C329.325,63.769 326.843,59.887 322.889,58.529C319.981,57.529 316.862,58.097 314.527,59.853C313.725,56.752 312.748,54.746 312.748,54.746C311.871,52.941 310.446,51.528 308.742,50.655C310.947,46.881 310.131,42.049 306.775,39.212C303.355,36.32 298.332,36.373 294.974,39.336L294.89,39.41C294.618,38.73 294.432,38.345 294.432,38.345L294.425,38.331C292.819,35.093 289.443,33.132 285.851,33.327C285.513,31.771 285.255,30.743 285.255,30.743L285.252,30.733C284.641,28.372 283.124,26.423 281.121,25.234C280.99,21.535 280.18,19.025 280.18,19.025C279.107,15.562 276.051,13.073 272.431,12.723C268.811,12.373 265.334,14.229 263.611,17.433L263.578,17.5C263.578,17.5 263.531,17.599 263.443,17.774C262.458,11.323 260.799,5.955 260.791,5.928C259.904,3.06 257.678,0.884 254.926,-0ZM29.169,496.838C18.178,490.758 10.728,479.045 10.728,465.605L10.728,94.832C11.5,95.488 12.395,96.023 13.393,96.399C13.388,96.397 39.876,106.504 70.673,134.851C88.87,151.603 100.833,165.888 108.002,175.322C105.478,186.77 104.302,201.213 104.599,220.644C104.972,244.908 108.131,259.065 109.475,269.785C108.287,269.518 107.062,269.495 105.875,269.711C104.893,269.831 103.916,270.116 102.991,270.572C70.735,286.458 52.782,315.704 49.342,350.141C49.165,351.915 49.517,353.641 50.285,355.142C47.897,362.652 46.418,370.475 45.965,378.491C45.832,380.858 46.629,383.097 48.071,384.811C40.579,414.66 33.744,454.549 29.169,496.838ZM512,322.091L512,465.605C512,485.29 496.018,501.272 476.333,501.272L264.926,501.272C266.061,496.127 267.252,490.808 268.483,485.313C268.623,484.687 268.301,484.049 267.715,483.791C267.128,483.532 266.44,483.723 266.072,484.249C264.484,486.516 262.951,488.816 261.522,491.173C262.938,479.671 266.567,468.652 271.916,458.495C272.23,457.899 272.053,457.162 271.503,456.773C270.953,456.384 270.2,456.463 269.742,456.957C267.501,459.378 265.357,461.879 263.347,464.475C267.005,449.866 274.186,436.467 283.984,425.078C284.108,424.934 284.2,424.765 284.254,424.582C310.1,336.894 335.692,280.531 367.59,253.165C368.029,252.789 368.178,252.174 367.96,251.639C367.741,251.104 367.205,250.768 366.629,250.806C363.482,251.012 360.342,251.318 357.221,251.756C363.802,247.94 370.754,244.901 377.94,242.539C378.51,242.352 378.886,241.809 378.862,241.21C378.838,240.61 378.419,240.099 377.836,239.958C375.565,239.409 373.285,238.908 370.992,238.477C379.434,236.792 387.994,236.197 396.485,236.456C397.123,236.475 397.686,236.043 397.833,235.422C397.979,234.801 397.668,234.162 397.089,233.895C393.723,232.34 390.285,230.909 386.778,229.659C396.628,229.239 406.394,230.227 415.84,232.336C416.478,232.478 417.125,232.141 417.374,231.536C417.623,230.931 417.4,230.236 416.846,229.888C414.234,228.248 411.568,226.686 408.836,225.239C440.225,228.242 468.582,244.797 486.305,269.876L486.349,269.934C496.754,283.073 505.578,300.217 512,322.091ZM249.103,501.272L46.395,501.272C43.905,501.272 41.474,501.016 39.127,500.529C44.755,447.431 54.043,397.894 63.711,367.43C63.911,366.801 63.624,366.12 63.034,365.824C62.445,365.528 61.727,365.704 61.342,366.239C59.786,368.398 58.295,370.594 56.906,372.847C58.621,359.894 63.34,347.63 70.376,336.712C70.757,336.121 70.617,335.336 70.056,334.913C69.494,334.489 68.701,334.571 68.237,335.1C65.444,338.286 62.809,341.597 60.447,345.079C64.811,317.599 79.855,294.321 105.602,280.874C104.199,287.378 100.862,304.495 102.441,313.539C103.453,319.349 105.864,323.226 108.392,326.758C110.734,330.031 113.195,332.975 114.51,337.102C117.193,345.535 117.198,355.081 117.578,365.716C117.988,376.969 121.691,382.244 133.404,389.701C135.768,391.209 138.878,395.358 142.278,400.765C150.49,413.823 160.073,434.176 163.812,444.596C164.055,445.274 164.79,445.64 165.478,445.424C166.165,445.208 166.56,444.488 166.372,443.793C164.573,437.129 159.483,418.543 154.907,405.737C152.2,398.16 151.134,393.07 150.018,389.228C148.817,385.095 147.536,382.319 144.414,379.536C138.8,374.525 134.652,370.643 132.778,364.563C131.829,361.478 131.859,355.852 131.573,349.864C131.273,343.563 130.639,336.884 128.44,332.108C126.293,327.446 123.372,322.963 120.985,318.388C118.71,314.029 116.917,309.59 116.917,304.79C116.917,291.741 121.172,281.309 119.998,270.494C118.836,259.755 115.355,245.671 114.967,220.485C114.651,199.786 116.012,185.082 119.073,173.677C119.179,173.284 119.1,172.864 118.86,172.536C111.896,163.022 98.892,146.735 77.696,127.221C57.885,108.987 39.729,97.939 28.548,92.082C33.136,93.241 38.717,94.761 44.755,96.637C45.357,96.824 46.008,96.568 46.32,96.021C46.633,95.474 46.523,94.783 46.056,94.36C42.655,91.276 38.259,87.58 33.836,84.611C29.193,81.494 23.649,76.708 19.362,72.797C22.451,74.119 26.443,75.618 31.472,77.14C46.044,81.547 54.348,86.36 54.348,86.36C54.553,86.479 54.786,86.542 55.023,86.542L56.344,85.44L56.363,85.288C56.367,85.228 56.455,84.84 55.925,83.696C55.385,82.531 53.963,80.027 50.18,74.819C47.574,71.231 44.835,68.019 42.53,65.496C45.06,66.655 47.991,67.904 50.852,68.906C58.058,71.431 66.436,77.965 66.436,77.965C66.962,78.374 67.709,78.336 68.19,77.875C68.671,77.414 68.742,76.67 68.356,76.127C68.356,76.127 65.435,72.017 60.503,65.418C58.012,62.087 55.712,58.632 54.057,56.049C55.832,57.002 58.046,58.217 60.492,59.62C66.62,63.133 72.985,67.118 72.985,67.118C73.539,67.465 74.262,67.362 74.698,66.874C75.134,66.387 75.155,65.656 74.749,65.144C74.749,65.144 67.787,56.38 60.339,49.495C56.422,45.879 54.308,43.372 53.202,41.859C55.591,42.081 60.11,43.105 67.018,47.037C78.499,53.573 83.502,57.157 83.502,57.157C84.064,57.559 84.839,57.47 85.294,56.951C85.75,56.432 85.737,55.652 85.265,55.148C85.265,55.148 81.664,51.281 76.604,42.298C74.009,37.692 73.135,34.778 72.841,33.386C73.025,33.445 73.225,33.519 73.433,33.611C75.145,34.372 77.93,36.168 82.366,40.188C92.116,49.025 99.625,52.93 99.625,52.93C99.817,53.03 100.03,53.082 100.246,53.082L101.239,52.643L101.528,52.178C101.613,51.968 101.813,51.454 101.526,50.376C101.184,49.093 99.905,46.332 95.411,40.702C91.473,35.773 87.905,31.839 85.479,29.286C88.012,30.273 91.744,32.257 96.696,36.237C106.199,43.874 109.332,45.482 110.053,45.79C110.106,45.815 110.161,45.836 110.217,45.854L110.231,45.859C110.358,45.897 110.489,45.917 110.621,45.917C111.007,45.916 111.382,45.75 111.641,45.447C111.988,45.042 112.062,44.471 111.831,43.99C111.831,43.99 109.017,38.148 106.625,29.962C105.511,26.151 103.803,23.115 101.97,20.603L102.011,20.643C108.944,27.504 116.116,33.43 116.116,33.43C116.587,33.819 117.26,33.841 117.756,33.485C118.251,33.128 118.444,32.483 118.225,31.913L114.357,21.847C116.201,23.765 118.428,26.168 120.653,28.776C126.044,35.098 131.157,41.677 131.157,41.677C131.509,42.129 132.109,42.308 132.651,42.123C133.193,41.939 133.558,41.43 133.56,40.857C133.56,40.857 133.601,33.608 128.914,26.894C126.651,23.65 124.123,19.796 122.197,16.813C125.645,19.131 130.362,22.735 134.428,27.372C139.168,32.78 141.588,34.728 142.748,35.437C143.95,36.171 144.51,36.032 144.666,35.985C144.727,35.972 144.798,35.952 144.878,35.923C145.383,35.735 145.745,35.253 145.754,34.684C145.754,34.684 145.856,27.798 145.107,22.537C144.63,19.2 142.644,12.583 141.262,8.216C142.893,9.757 145.07,12.099 147.655,15.557C153.781,23.752 158.156,30.309 158.156,30.309C158.514,30.846 159.203,31.052 159.797,30.8C160.391,30.549 160.722,29.911 160.586,29.281C158.937,21.643 157.165,15.55 155.826,11.417C156.936,12.686 158.305,14.29 159.977,16.302C166.558,24.22 170.471,30.251 170.471,30.251C170.776,30.722 171.34,30.953 171.888,30.832C172.435,30.711 172.849,30.263 172.927,29.708C172.927,29.708 173.828,23.319 174.826,17.365C175.355,14.214 175.466,10.48 175.449,7.605C176.812,9.724 178.565,12.645 180.309,16.09C184.022,23.422 185.975,28.359 185.975,28.359C186.218,28.974 186.873,29.32 187.518,29.175C188.163,29.03 188.607,28.437 188.564,27.777C188.564,27.777 187.801,16.648 188.534,13.392C188.783,12.285 188.673,10.322 188.343,8.118C188.003,5.846 187.453,3.295 186.974,1.257C188.482,2.781 190.462,5.256 192.558,9.161C197.301,17.983 200.049,23.264 200.049,23.264C200.366,23.875 201.094,24.147 201.735,23.893C202.375,23.639 202.719,22.943 202.532,22.28C202.532,22.28 199.806,12.638 199.316,7.464C199.137,5.601 199.154,3.309 199.248,1.144C200.626,5.089 202.662,9.714 205.269,12.334L205.27,12.336C210.152,17.229 215.495,29.369 215.495,29.369C215.776,30.004 216.495,30.32 217.152,30.098C217.81,29.876 218.19,29.19 218.029,28.514C218.029,28.514 216.316,21.427 217.036,16.855C217.301,15.164 217.958,13.194 218.682,11.379C218.871,13.221 219.322,15.083 220.198,16.501C222.43,20.122 225.704,34.546 225.704,34.546C225.841,35.145 226.367,35.573 226.98,35.588C227.594,35.603 228.139,35.199 228.305,34.608C228.305,34.608 230.307,27.429 233.287,23.115C235.121,20.455 236.852,16.065 237.985,12.84C238.762,15.779 239.614,19.949 239.559,23.954C239.46,31.505 239.986,40.196 239.986,40.196C240.028,40.889 240.592,41.435 241.286,41.457C241.98,41.478 242.576,40.966 242.66,40.277C242.66,40.277 244.043,28.588 247.12,23.717C248.982,20.773 250.786,16.377 251.988,13.157C252.575,15.642 253.243,18.976 253.582,22.402C254.273,29.36 254.001,38.458 254.001,38.458C253.983,39.058 254.366,39.597 254.938,39.778C255.51,39.959 256.134,39.738 256.464,39.237C256.464,39.237 258.979,35.434 263.338,33.129C266.262,31.586 269.017,28.096 270.781,25.501C270.853,27.234 270.68,29.457 269.798,31.739C267.696,37.196 263.999,50.561 263.999,50.561C263.824,51.193 264.131,51.858 264.725,52.136C265.319,52.413 266.026,52.221 266.398,51.682C266.398,51.682 271.656,44.05 273.224,42.364C274.058,41.467 275.189,39.257 276.113,37.268C276.589,39.602 277.076,42.512 277.076,44.648C277.076,48.94 276.994,55.15 276.994,55.15C276.988,55.599 277.207,56.021 277.578,56.275C277.949,56.529 278.422,56.581 278.838,56.413C278.838,56.413 282.956,54.764 284.777,50.519C285.363,49.156 285.896,47.766 286.337,46.545C286.633,47.935 286.791,49.581 286.499,51.21C285.707,55.653 284.153,61.5 284.153,61.5C283.983,62.14 284.306,62.81 284.914,63.075C285.521,63.34 286.232,63.122 286.586,62.562C286.586,62.562 289.66,57.696 293.614,54.282C294.984,53.102 296.355,51.91 297.574,50.847C297.148,52.506 296.896,54.396 297.12,56.297C297.684,61.052 297.137,64.091 296.396,66.064C295.582,68.195 294.166,72.648 294.166,72.648C293.994,73.19 294.182,73.781 294.634,74.124C295.087,74.468 295.706,74.49 296.182,74.179C296.182,74.179 301.052,70.951 302.879,67.773L302.882,67.769C303.594,66.518 304.23,64.843 304.734,63.292C305.153,65.185 305.413,67.57 305.004,70.039C304.022,75.916 303.151,78.532 303.151,78.532C302.998,78.986 303.1,79.487 303.416,79.846C303.733,80.206 304.217,80.37 304.687,80.276C304.687,80.276 312.194,78.712 315.314,75.626C316.109,74.841 316.886,73.924 317.601,72.998C316.95,76.489 316.07,80.498 315.211,82.2C313.441,85.676 311.683,91.48 311.683,91.48C311.528,91.992 311.693,92.547 312.101,92.893C312.51,93.239 313.085,93.309 313.565,93.071C313.565,93.071 320.773,89.453 323.503,85.65C324.47,84.304 325.379,82.833 326.143,81.507C326.183,83.516 326.092,85.845 325.637,87.754C324.55,92.32 323.379,99.501 323.379,99.501C323.301,99.978 323.486,100.46 323.863,100.763C324.239,101.066 324.749,101.143 325.199,100.965C325.199,100.965 328.055,99.853 331.614,96.672L331.616,96.671C332.935,95.49 334.068,94.155 334.97,92.95C334.917,94.648 334.697,96.642 334.096,98.445C332.593,102.958 330.13,109.651 330.13,109.651C329.981,110.056 330.035,110.507 330.276,110.865C330.517,111.222 330.914,111.443 331.345,111.457C331.345,111.457 333.646,111.538 338.734,111.005C341.546,110.715 345.157,110.325 347.758,110.041C347.031,110.906 346.234,111.877 345.541,112.776C343.594,115.292 342.294,118.656 342.294,118.656C342.065,119.25 342.284,119.924 342.82,120.268C343.356,120.613 344.06,120.534 344.506,120.079C344.506,120.079 348.636,115.835 351.213,114.458C351.911,114.084 352.643,113.8 353.332,113.587C352.319,115.223 351.23,117.422 350.783,119.827C349.922,124.458 348.711,130.532 348.711,130.532C348.604,131.065 348.83,131.61 349.283,131.912C349.735,132.213 350.325,132.212 350.777,131.909C350.777,131.909 353.642,129.996 357.901,129.027C359.644,128.63 361.355,128.527 362.767,128.542C361.434,129.633 359.843,131.105 358.384,132.899C354.876,137.214 354.742,141.419 354.742,141.419C354.723,141.889 354.951,142.336 355.344,142.595C355.737,142.854 356.237,142.889 356.662,142.686L358.97,141.585C356.827,146.243 357.308,147.95 357.308,147.95C357.399,148.371 357.686,148.722 358.08,148.896C358.253,148.972 358.437,149.01 358.621,149.01C358.856,149.01 359.09,148.948 359.298,148.826C359.298,148.826 364.627,145.674 366.686,142.536C367.009,142.047 367.304,141.555 367.573,141.073C367.588,141.462 367.597,141.862 367.598,142.264C367.601,144.237 367.443,146.286 366.749,147.609L366.748,147.611C364.817,151.309 362.637,155.413 362.637,155.413C362.46,155.745 362.431,156.137 362.558,156.492C362.684,156.847 362.954,157.133 363.301,157.28C363.301,157.28 367.043,158.985 370.257,154.932C370.705,154.368 371.105,153.822 371.461,153.306C371.374,154.452 371.174,155.678 370.777,156.815C369.43,160.684 367.513,164.963 367.513,164.963C367.283,165.477 367.398,166.079 367.801,166.473C368.204,166.866 368.81,166.966 369.318,166.723C371.188,165.83 372.617,164.896 373.695,164.043C373.485,165.258 373.172,166.649 372.711,168.041L372.709,168.047C371.522,171.687 370.333,177.013 369.97,178.653C369.889,179.016 369.963,179.396 370.173,179.703L371.051,180.988C357.893,167.837 346.588,156.678 339.852,149.006C317.611,123.683 285.786,101.601 255.336,94.832C234.79,90.264 214.865,92.644 198.818,105.51C185.474,116.21 179.269,130.652 178.206,146.729C178.027,149.355 178.071,152.044 178.163,154.752C178.196,155.741 178.176,156.718 178.247,157.715C178.462,160.822 178.872,163.977 179.406,167.152L179.408,167.161C179.494,167.652 179.531,168.127 179.622,168.625L179.623,168.629C179.904,170.151 180.341,171.685 180.692,173.215C181.151,175.228 181.533,177.246 182.107,179.271C182.875,181.982 183.725,184.695 184.674,187.41C178.423,183.276 172.033,181.789 166.522,183.751C161.071,185.688 157.21,190.613 155.232,197.468C152.405,207.264 153.426,221.083 158.9,235.152C160.346,238.859 167.585,253.582 174.406,261.06C176.129,262.951 177.619,264.631 178.875,266.074L167.026,258.961C166.704,258.768 166.317,258.718 165.957,258.823C165.957,258.823 151.78,263 151.78,277.109C151.78,291.032 157.548,295.773 157.548,295.773C157.832,296.015 158.203,296.128 158.573,296.085C158.573,296.085 165.357,295.308 173.01,297.42C181.038,299.635 177.994,300.11 187.984,301.301C190.017,301.544 191.619,301.952 193.05,302.385C193.502,302.522 193.993,302.411 194.342,302.094C194.692,301.776 194.849,301.298 194.755,300.835C194.522,299.678 194.253,298.49 194.23,297.512C194.177,295.195 194.711,292.882 195.323,291.023C195.816,292.821 196.589,295.008 197.794,297.314C200.702,302.874 203.772,304.433 203.772,304.433C204.284,304.706 204.914,304.618 205.333,304.216C205.751,303.814 205.864,303.189 205.613,302.665C205.613,302.665 204.393,299.997 204.393,292.201C204.393,289.086 204.904,286.704 205.504,284.981C205.682,286.104 205.938,287.341 206.305,288.585C207.156,291.469 208.62,294.36 210.98,296.078C213.793,298.128 218.514,298.545 220.818,298.642C221.191,298.658 221.554,298.518 221.819,298.255C227.753,292.381 236.607,276.993 239.294,273.569C240.358,272.213 241.768,272.092 242.904,272.284C244.175,272.499 245.151,273.087 245.151,273.087C245.658,273.397 246.308,273.337 246.75,272.939C247.191,272.541 247.318,271.9 247.063,271.364C247.063,271.364 234.268,244.546 232.397,226.117C231.177,214.103 233.35,202.546 235.096,195.718C236.713,207.923 241.465,234.638 253.84,256.135C263.339,272.629 277.721,289.063 280.641,295.018C281.89,297.562 281.034,299.969 279.736,302.229C278.195,304.91 276.021,307.409 274.936,309.673C273.717,312.216 273.822,313.762 273.967,315.469C274.083,316.831 274.225,318.319 273.342,320.853C272.792,322.427 271.144,324.642 269.147,327.001C264.231,332.809 257.143,339.323 257.143,339.323L257.114,339.351L250.949,345.377L252.849,340.845C253.089,340.313 256.312,333.066 255.874,328.611C255.694,326.766 254.911,323.894 252.362,321.719C249.951,319.662 245.881,318.162 238.989,319.074C225.829,320.816 219.661,330.152 216.624,333.833C215.648,335.012 214.017,335.498 212.14,335.738C208.82,336.163 204.758,335.723 201.315,335.615C200.128,335.574 199.201,335.895 198.395,336.36C197.862,336.668 197.607,337.297 197.774,337.888C197.941,338.48 198.488,338.882 199.102,338.866C200.922,338.817 203.306,339.113 205.821,340.786C208.71,342.703 210.592,345.935 211.651,348.267C209.27,347.447 205.74,346.611 202.034,347.073C197.458,347.645 195.92,349.658 194.83,350.929C194.646,351.145 194.534,351.413 194.511,351.695C194.499,351.846 194.483,351.996 194.471,352.138C194.071,356.712 194.909,358.062 196.522,360.111C197.435,361.271 198.658,362.688 200.09,365.348C203.719,372.105 204.831,377.958 205.595,381.243C205.927,382.678 207.107,384.2 208.827,385.524C211.121,387.289 214.365,388.76 217.252,389.376C217.652,389.461 218.07,389.359 218.386,389.099C218.702,388.839 218.882,388.449 218.875,388.04C218.801,383.681 219.317,378.421 219.809,374.493C220.897,377.624 222.382,381.447 223.985,384.273C225.001,386.067 226.349,387.721 227.634,389.434C227.883,389.767 228.272,389.965 228.687,389.971C237.76,390.118 249.297,390.075 251.702,389.533C255.396,388.706 260.688,384.4 261.339,377.342C261.923,371.046 262.897,364.927 262.897,364.927C262.988,364.356 262.702,363.791 262.189,363.524C261.676,363.258 261.049,363.35 260.634,363.753L253.483,370.707C256.549,364.254 261.968,354.137 268.777,346.818C277.264,337.692 302.055,317.467 312.607,308.966C305.076,322.515 286.853,356.695 277.904,385.561C274.971,395.029 274.384,397.485 273.195,401.748C269.529,401.009 264.701,400.263 258.617,399.835C244.112,398.812 227.189,402.012 219.626,404.13C215.771,405.208 214.364,407.254 214.395,408.993C214.416,410.151 215.036,411.346 216.287,412.322C217.767,413.475 220.216,414.365 223.341,414.454C226.653,414.548 229.048,413.523 231.831,412.223C235.59,410.467 240.153,408.221 249.538,408.261C258.569,408.304 265.354,411.256 269.721,413.792C268.843,417.317 268.531,419.038 268.421,419.784C266.391,422.167 253.799,437.616 249.082,459.399C246.832,469.797 245.697,478.08 245.117,484.983C245.074,485.499 245.331,485.994 245.778,486.255C246.225,486.516 246.783,486.497 247.211,486.206C248.446,485.365 249.662,484.518 250.918,483.693C249.119,491.481 249.009,496.751 249.103,501.272ZM144.666,35.985C144.502,36.02 144.411,36.006 144.411,36.006C144.511,36.006 144.608,35.995 144.701,35.975L144.666,35.985ZM71.454,33.253L72.17,33.047L72.123,33.075C72.11,33.082 71.889,33.17 71.889,33.17L71.957,33.178C71.68,33.287 71.454,33.253 71.454,33.253ZM71.454,33.253L71.374,33.221C71.256,32.224 71.454,31.911 71.454,31.911C71.454,31.911 71.509,31.875 71.641,31.85C71.612,32.536 71.454,33.253 71.454,33.253ZM238.961,343.338C239.004,343.145 239.039,342.954 239.062,342.766C239.231,341.415 238.878,340.242 237.902,339.522C235.259,337.57 230.851,338.224 226.883,341.554C225.051,343.093 223.522,344.555 222.327,345.781C222.987,342.531 224.271,338.2 226.673,335.507C229.778,332.027 234.794,329.274 238.906,329.074C241.022,328.971 242.916,329.557 243.943,331.354C245.465,334.026 244.854,336.534 243.5,338.654C242.298,340.537 240.54,342.14 238.961,343.338ZM383.415,164.5C383.289,164.722 383.131,164.869 382.971,164.968C383.152,164.852 383.305,164.693 383.415,164.5ZM131.446,8.547L131.69,8.206L131.692,8.205L131.446,8.547ZM381.278,163.559L380.956,163.473C380.974,163.408 380.999,163.341 381.03,163.271C381.042,163.243 381.061,163.232 381.085,163.236L381.278,163.559ZM382.663,165.098L382.697,164.884L383.482,164.366C383.326,164.715 383.027,164.982 382.663,165.098Z" style="fill:rgb(5,156,74);"/>
    </g>
</svg>
